<svg xmlns="http://www.w3.org/2000/svg" viewBox="0 0 512 512" role="img" aria-labelledby="title">
  <title id="title">Pallavolo</title>
  <g fill="#FFD400">
    <path d="M256 62c107.1 0 194 86.9 194 194s-86.9 194-194 194S62 363.1 62 256 148.9 62 256 62Zm0 38c-86.2 0-156 69.8-156 156s69.8 156 156 156 156-69.8 156-156S342.2 100 256 100Z"/>
    <path d="M243 82c15.5 51.8 8.5 95.6-20.9 131.5-28.9 35.2-73.5 52.7-133.9 52.5l.1-37c48.8.2 84.1-13.1 105.3-39 21.4-26.1 25.9-58.7 13.9-97.4L243 82Zm172 110c-52.1-13.9-95.7-6-130.8 23.9-34.5 29.4-50.8 74.5-48.8 135.1l-37 1.2c-2.4-72.6 18.2-128.2 61.7-165.2 43.8-37.3 98.9-47.5 164.5-30l-9.6 35Zm-91 222c-13.7-52.3-39.9-87.9-78.7-106.8-37.9-18.5-84.6-17.4-140.1 3.2l-12.9-34.7c65.8-24.5 123-24.6 169.3-2 47.2 23 79.8 66.8 98.2 130.9L324 414Z"/>
  </g>
</svg>
