<svg xmlns="http://www.w3.org/2000/svg" xmlns:xlink="http://www.w3.org/1999/xlink" width="1366" zoomAndPan="magnify" viewBox="0 0 1024.5 576" height="768" preserveAspectRatio="xMidYMid meet" version="1.0"><defs><clipPath id="fd6d2b989b"><path d="M 396.855469 172.855469 L 626.992188 172.855469 L 626.992188 402.992188 L 396.855469 402.992188 Z M 396.855469 172.855469 " clip-rule="nonzero"/></clipPath></defs><g clip-path="url(#fd6d2b989b)"><path fill="#ffc107" d="M 511.996094 172.859375 C 448.507812 172.859375 396.855469 224.511719 396.855469 287.996094 C 396.855469 351.484375 448.507812 403.136719 511.996094 403.136719 C 575.484375 403.136719 627.136719 351.484375 627.136719 287.996094 C 627.136719 224.511719 575.484375 172.859375 511.996094 172.859375 Z M 594.535156 308.410156 C 593.285156 329.023438 586.914062 358.972656 563.742188 384.875 C 550.449219 392.007812 535.523438 396.476562 519.6875 397.578125 C 548.664062 370.457031 556.890625 337.832031 558.558594 314.621094 C 560.082031 293.421875 556.652344 276.59375 555.058594 270.183594 C 567.175781 267.839844 579.507812 268.046875 591.976562 270.804688 C 592.964844 275.332031 595.667969 289.792969 594.535156 308.410156 Z M 514.070312 325.992188 C 517.496094 308.113281 515.640625 293.613281 514.863281 288.984375 C 518.050781 286.257812 528.484375 278.070312 544.234375 272.972656 C 546.113281 272.363281 548 271.828125 549.890625 271.34375 C 551.363281 277.324219 554.777344 293.933594 553.273438 314.433594 C 552.171875 329.449219 548.683594 343.585938 542.90625 356.453125 C 535.820312 372.234375 525.234375 386.148438 511.445312 397.84375 C 497.296875 397.773438 483.773438 395.019531 471.359375 390.058594 C 500.074219 370.785156 510.464844 344.808594 514.070312 325.992188 Z M 542.363281 268.023438 C 525.578125 273.503906 514.714844 282.105469 511.304688 285.066406 C 507.207031 283.855469 494.0625 279.425781 480.605469 269.003906 C 479.058594 267.804688 477.566406 266.570312 476.121094 265.304688 C 489.230469 251.847656 504.109375 241.882812 520.398438 235.683594 C 533.824219 230.574219 548.242188 227.984375 563.269531 227.984375 C 563.527344 227.984375 563.789062 227.984375 564.046875 227.988281 C 587.070312 228.125 604.664062 234.367188 608.707031 235.929688 C 615.257812 248.054688 619.59375 261.546875 621.175781 275.855469 C 587.917969 259.101562 560.113281 262.226562 542.363281 268.023438 Z M 604.558594 228.894531 C 596.460938 226.363281 582.046875 222.835938 564.292969 222.703125 C 539.625 222.519531 503.847656 229.203125 472.234375 261.714844 C 463.214844 252.898438 456.355469 242.597656 451.683594 230.875 C 478.417969 203.886719 508.789062 195.347656 529.695312 192.96875 C 550.53125 190.59375 566.328125 193.675781 569.332031 194.332031 C 583.519531 203.046875 595.585938 214.886719 604.558594 228.894531 Z M 555.511719 187.140625 C 548.523438 186.640625 539.546875 186.542969 529.3125 187.691406 C 507.957031 190.089844 477.132812 198.632812 449.6875 225.402344 C 447.203125 217.859375 445.574219 209.769531 444.796875 201.160156 C 463.382812 186.742188 486.703125 178.144531 511.996094 178.144531 C 527.449219 178.144531 542.160156 181.355469 555.511719 187.140625 Z M 439.910156 205.171875 C 444.171875 240.636719 462.523438 261.738281 477.550781 273.320312 C 491.609375 284.160156 505.042969 288.742188 509.683594 290.105469 C 510.402344 294.625 512.070312 308.511719 508.839844 325.199219 C 508.578125 326.554688 508.285156 327.886719 507.972656 329.210938 C 489.917969 324.769531 473.84375 317.40625 460.160156 307.285156 C 448.714844 298.816406 438.894531 288.402344 430.976562 276.339844 C 419.125 258.292969 415.09375 241.828125 414.253906 237.890625 C 420.675781 225.410156 429.417969 214.316406 439.910156 205.171875 Z M 410.726562 245.429688 C 412.960938 253.019531 417.570312 265.503906 426.425781 279.042969 C 439.136719 298.480469 463.324219 323.636719 506.632812 334.320312 C 503.035156 346.699219 497.195312 357.707031 489.152344 367.28125 C 454.28125 357.089844 432.542969 337.109375 420.40625 322.023438 C 408.449219 307.160156 403.214844 294.039062 402.195312 291.304688 C 402.164062 290.207031 402.140625 289.105469 402.140625 287.996094 C 402.140625 272.914062 405.199219 258.527344 410.726562 245.429688 Z M 403.792969 307.019531 C 406.71875 312.175781 410.742188 318.417969 416.140625 325.152344 C 428.480469 340.546875 450.367188 360.816406 485.25 371.628906 C 479.597656 377.542969 473.027344 382.851562 465.546875 387.535156 C 433.644531 372.585938 410.058594 342.75 403.792969 307.019531 Z M 577.160156 376.378906 C 593.683594 352.5 598.699219 327.0625 599.8125 308.730469 C 600.828125 292.023438 598.910156 278.710938 597.667969 272.234375 C 605.632812 274.480469 613.644531 277.765625 621.6875 282.074219 C 621.792969 284.035156 621.851562 286.011719 621.851562 287.996094 C 621.851562 324.195312 604.25 356.355469 577.160156 376.378906 Z M 577.160156 376.378906 " fill-opacity="1" fill-rule="nonzero"/></g></svg>