<svg xmlns="http://www.w3.org/2000/svg" xmlns:xlink="http://www.w3.org/1999/xlink" width="1366" zoomAndPan="magnify" viewBox="0 0 1024.5 576" height="768" preserveAspectRatio="xMidYMid meet" version="1.0"><path fill="#ffc107" d="M 685.242188 322.085938 L 680.144531 257.179688 C 679.984375 255.25 679.738281 253.332031 679.410156 251.421875 C 679.082031 249.511719 678.671875 247.621094 678.179688 245.75 C 677.6875 243.875 677.117188 242.027344 676.464844 240.203125 C 675.8125 238.378906 675.085938 236.585938 674.277344 234.824219 C 673.472656 233.0625 672.59375 231.339844 671.636719 229.65625 C 670.683594 227.96875 669.65625 226.328125 668.5625 224.734375 C 667.464844 223.136719 666.300781 221.589844 665.070312 220.09375 C 663.839844 218.597656 662.546875 217.15625 661.195312 215.773438 C 659.839844 214.386719 658.429688 213.066406 656.960938 211.800781 C 655.492188 210.539062 653.972656 209.34375 652.398438 208.210938 C 650.828125 207.078125 649.207031 206.019531 647.546875 205.027344 C 645.882812 204.035156 644.179688 203.117188 642.433594 202.273438 C 640.691406 201.425781 638.917969 200.660156 637.105469 199.96875 C 635.296875 199.277344 633.460938 198.664062 631.601562 198.132812 C 629.738281 197.597656 627.855469 197.148438 625.953125 196.777344 C 624.054688 196.40625 622.140625 196.121094 620.214844 195.914062 L 620.214844 181.476562 C 620.214844 181.078125 620.175781 180.683594 620.097656 180.292969 C 620.019531 179.902344 619.90625 179.523438 619.753906 179.15625 C 619.601562 178.789062 619.414062 178.4375 619.191406 178.105469 C 618.972656 177.777344 618.71875 177.46875 618.4375 177.1875 C 618.15625 176.90625 617.851562 176.65625 617.519531 176.433594 C 617.1875 176.210938 616.835938 176.027344 616.46875 175.875 C 616.101562 175.722656 615.722656 175.605469 615.332031 175.527344 C 614.941406 175.449219 614.546875 175.410156 614.148438 175.410156 L 568.410156 175.410156 C 568.011719 175.410156 567.617188 175.449219 567.226562 175.527344 C 566.835938 175.605469 566.457031 175.722656 566.089844 175.875 C 565.722656 176.027344 565.371094 176.210938 565.042969 176.433594 C 564.710938 176.65625 564.402344 176.90625 564.121094 177.1875 C 563.839844 177.46875 563.589844 177.777344 563.367188 178.105469 C 563.144531 178.4375 562.960938 178.789062 562.808594 179.15625 C 562.65625 179.523438 562.539062 179.902344 562.460938 180.292969 C 562.382812 180.683594 562.34375 181.078125 562.34375 181.476562 L 562.34375 195.1875 L 462.257812 195.1875 L 462.257812 181.476562 C 462.257812 181.078125 462.21875 180.683594 462.140625 180.292969 C 462.0625 179.902344 461.949219 179.523438 461.796875 179.15625 C 461.644531 178.789062 461.457031 178.4375 461.234375 178.105469 C 461.015625 177.777344 460.761719 177.46875 460.480469 177.1875 C 460.199219 176.90625 459.894531 176.65625 459.5625 176.433594 C 459.230469 176.210938 458.878906 176.027344 458.511719 175.875 C 458.144531 175.722656 457.765625 175.605469 457.375 175.527344 C 456.984375 175.449219 456.589844 175.410156 456.191406 175.410156 L 410.332031 175.410156 C 409.933594 175.410156 409.539062 175.449219 409.148438 175.527344 C 408.757812 175.605469 408.378906 175.722656 408.011719 175.875 C 407.644531 176.027344 407.292969 176.210938 406.964844 176.433594 C 406.632812 176.65625 406.324219 176.90625 406.042969 177.1875 C 405.761719 177.46875 405.511719 177.777344 405.289062 178.105469 C 405.066406 178.4375 404.882812 178.789062 404.730469 179.15625 C 404.578125 179.523438 404.460938 179.902344 404.382812 180.292969 C 404.304688 180.683594 404.265625 181.078125 404.265625 181.476562 L 404.265625 195.914062 C 402.332031 196.109375 400.410156 196.382812 398.5 196.746094 C 396.589844 197.105469 394.699219 197.546875 392.824219 198.070312 C 390.953125 198.59375 389.105469 199.199219 387.289062 199.882812 C 385.46875 200.566406 383.679688 201.332031 381.925781 202.167969 C 380.171875 203.007812 378.460938 203.921875 376.785156 204.910156 C 375.109375 205.898438 373.480469 206.957031 371.898438 208.089844 C 370.316406 209.21875 368.785156 210.414062 367.308594 211.675781 C 365.828125 212.9375 364.410156 214.261719 363.042969 215.648438 C 361.679688 217.035156 360.378906 218.476562 359.140625 219.972656 C 357.902344 221.472656 356.730469 223.023438 355.628906 224.621094 C 354.523438 226.222656 353.488281 227.867188 352.527344 229.558594 C 351.566406 231.25 350.679688 232.976562 349.871094 234.742188 C 349.058594 236.511719 348.324219 238.308594 347.667969 240.140625 C 347.015625 241.96875 346.441406 243.824219 345.945312 245.707031 C 345.449219 247.585938 345.039062 249.484375 344.710938 251.398438 C 344.378906 253.316406 344.132812 255.242188 343.972656 257.179688 L 338.875 322.085938 C 338.714844 324.136719 338.652344 326.1875 338.679688 328.246094 C 338.707031 330.300781 338.832031 332.351562 339.050781 334.398438 C 339.265625 336.441406 339.578125 338.472656 339.980469 340.488281 C 340.382812 342.503906 340.878906 344.5 341.464844 346.46875 C 342.050781 348.441406 342.726562 350.382812 343.492188 352.289062 C 344.257812 354.199219 345.105469 356.070312 346.042969 357.898438 C 346.980469 359.730469 347.996094 361.515625 349.097656 363.25 C 350.199219 364.988281 351.375 366.671875 352.628906 368.300781 C 353.882812 369.929688 355.210938 371.5 356.609375 373.007812 C 358.007812 374.515625 359.472656 375.953125 361.003906 377.328125 C 362.535156 378.699219 364.125 380 365.777344 381.226562 C 367.425781 382.453125 369.128906 383.605469 370.882812 384.675781 C 372.640625 385.746094 374.441406 386.734375 376.289062 387.636719 C 378.132812 388.542969 380.015625 389.363281 381.9375 390.09375 C 383.859375 390.828125 385.8125 391.46875 387.792969 392.023438 C 389.773438 392.578125 391.773438 393.039062 393.796875 393.40625 C 395.820312 393.777344 397.855469 394.054688 399.902344 394.234375 C 401.953125 394.417969 404.003906 394.507812 406.0625 394.5 C 408.117188 394.496094 410.167969 394.394531 412.214844 394.203125 C 414.265625 394.007812 416.296875 393.71875 418.320312 393.339844 C 420.339844 392.957031 422.339844 392.484375 424.316406 391.921875 C 426.292969 391.355469 428.242188 390.703125 430.15625 389.960938 C 432.074219 389.214844 433.953125 388.386719 435.796875 387.472656 C 437.636719 386.554688 439.433594 385.558594 441.183594 384.476562 C 442.933594 383.394531 444.628906 382.238281 446.269531 381 C 447.914062 379.765625 449.496094 378.457031 451.019531 377.074219 C 452.542969 375.691406 454 374.246094 455.390625 372.730469 C 456.78125 371.214844 458.097656 369.636719 459.34375 368 C 460.589844 366.363281 461.757812 364.675781 462.847656 362.933594 C 463.9375 361.1875 464.945312 359.398438 465.871094 357.5625 C 466.796875 355.726562 467.636719 353.851562 468.390625 351.9375 C 469.144531 350.023438 469.808594 348.082031 470.386719 346.105469 L 475.84375 329.363281 L 548.273438 329.363281 L 553.730469 345.863281 C 554.300781 347.84375 554.957031 349.789062 555.707031 351.707031 C 556.453125 353.625 557.285156 355.503906 558.207031 357.347656 C 559.125 359.1875 560.128906 360.984375 561.214844 362.730469 C 562.300781 364.480469 563.460938 366.175781 564.703125 367.820312 C 565.945312 369.460938 567.257812 371.042969 568.644531 372.5625 C 570.03125 374.085938 571.484375 375.539062 573.003906 376.925781 C 574.523438 378.3125 576.105469 379.628906 577.746094 380.871094 C 579.386719 382.113281 581.082031 383.277344 582.828125 384.363281 C 584.578125 385.453125 586.371094 386.457031 588.210938 387.375 C 590.054688 388.296875 591.933594 389.132812 593.847656 389.882812 C 595.765625 390.632812 597.714844 391.289062 599.691406 391.859375 C 601.667969 392.429688 603.667969 392.90625 605.691406 393.292969 C 607.710938 393.679688 609.746094 393.972656 611.796875 394.171875 C 613.84375 394.371094 615.898438 394.472656 617.957031 394.484375 C 620.015625 394.496094 622.070312 394.410156 624.121094 394.230469 C 626.171875 394.050781 628.207031 393.78125 630.234375 393.414062 C 632.257812 393.046875 634.261719 392.589844 636.246094 392.039062 C 638.230469 391.488281 640.183594 390.847656 642.109375 390.117188 C 644.03125 389.386719 645.917969 388.570312 647.769531 387.667969 C 649.617188 386.761719 651.421875 385.777344 653.179688 384.707031 C 654.9375 383.636719 656.644531 382.488281 658.296875 381.261719 C 659.953125 380.039062 661.542969 378.738281 663.078125 377.363281 C 664.613281 375.992188 666.078125 374.550781 667.480469 373.042969 C 668.882812 371.535156 670.210938 369.96875 671.46875 368.339844 C 672.722656 366.707031 673.902344 365.023438 675.007812 363.285156 C 676.109375 361.546875 677.128906 359.761719 678.066406 357.929688 C 679.003906 356.097656 679.855469 354.226562 680.621094 352.316406 C 681.386719 350.40625 682.066406 348.464844 682.652344 346.492188 C 683.238281 344.519531 683.734375 342.523438 684.140625 340.503906 C 684.542969 338.488281 684.855469 336.453125 685.070312 334.40625 C 685.289062 332.363281 685.410156 330.308594 685.4375 328.25 C 685.46875 326.191406 685.402344 324.136719 685.242188 322.085938 Z M 574.476562 187.542969 L 608.082031 187.542969 L 608.082031 195.1875 L 574.476562 195.1875 Z M 546.574219 207.320312 L 537.960938 237.164062 L 481.183594 237.164062 L 472.570312 207.320312 Z M 416.398438 187.542969 L 450.125 187.542969 L 450.125 195.1875 L 416.398438 195.1875 Z M 454.25 324.511719 C 453.226562 324.515625 452.210938 324.421875 451.203125 324.222656 C 450.195312 324.027344 449.21875 323.734375 448.269531 323.34375 C 447.320312 322.957031 446.421875 322.476562 445.566406 321.910156 C 444.710938 321.34375 443.921875 320.699219 443.195312 319.976562 C 442.46875 319.25 441.820312 318.464844 441.246094 317.613281 C 440.675781 316.761719 440.191406 315.863281 439.796875 314.917969 C 439.40625 313.96875 439.105469 312.996094 438.90625 311.988281 C 438.703125 310.984375 438.601562 309.96875 438.601562 308.941406 C 438.597656 307.917969 438.699219 306.902344 438.898438 305.894531 C 439.097656 304.890625 439.390625 303.914062 439.785156 302.964844 C 440.175781 302.019531 440.65625 301.117188 441.226562 300.265625 C 441.792969 299.414062 442.441406 298.625 443.167969 297.898438 C 443.890625 297.175781 444.679688 296.527344 445.53125 295.957031 C 446.386719 295.386719 447.285156 294.90625 448.234375 294.515625 C 449.179688 294.125 450.15625 293.828125 451.164062 293.628906 C 452.167969 293.429688 453.183594 293.332031 454.210938 293.332031 C 455.234375 293.335938 456.25 293.4375 457.257812 293.636719 C 458.261719 293.839844 459.238281 294.136719 460.183594 294.53125 C 461.128906 294.925781 462.027344 295.410156 462.878906 295.980469 C 463.730469 296.550781 464.519531 297.203125 465.242188 297.929688 C 465.964844 298.65625 466.609375 299.445312 467.175781 300.300781 C 467.746094 301.152344 468.222656 302.054688 468.613281 303.003906 C 469 303.953125 469.292969 304.929688 469.492188 305.9375 C 469.6875 306.941406 469.785156 307.957031 469.777344 308.984375 C 469.773438 310.003906 469.671875 311.011719 469.472656 312.007812 C 469.269531 313.007812 468.972656 313.976562 468.582031 314.917969 C 468.191406 315.855469 467.710938 316.75 467.144531 317.597656 C 466.578125 318.441406 465.933594 319.226562 465.214844 319.945312 C 464.492188 320.667969 463.710938 321.308594 462.863281 321.875 C 462.015625 322.445312 461.125 322.921875 460.183594 323.3125 C 459.242188 323.707031 458.273438 324.003906 457.277344 324.203125 C 456.277344 324.40625 455.269531 324.507812 454.25 324.511719 Z M 554.21875 308.984375 C 554.214844 307.957031 554.308594 306.941406 554.503906 305.9375 C 554.703125 304.929688 554.996094 303.953125 555.382812 303.003906 C 555.773438 302.054688 556.253906 301.152344 556.820312 300.300781 C 557.386719 299.445312 558.03125 298.65625 558.753906 297.929688 C 559.476562 297.203125 560.265625 296.550781 561.117188 295.980469 C 561.96875 295.410156 562.867188 294.925781 563.8125 294.53125 C 564.757812 294.136719 565.734375 293.839844 566.742188 293.636719 C 567.746094 293.4375 568.761719 293.335938 569.785156 293.332031 C 570.8125 293.332031 571.828125 293.429688 572.832031 293.628906 C 573.839844 293.828125 574.816406 294.125 575.761719 294.515625 C 576.710938 294.90625 577.609375 295.386719 578.464844 295.957031 C 579.316406 296.527344 580.105469 297.175781 580.828125 297.898438 C 581.554688 298.625 582.203125 299.414062 582.769531 300.265625 C 583.339844 301.117188 583.820312 302.019531 584.214844 302.964844 C 584.605469 303.914062 584.898438 304.890625 585.097656 305.894531 C 585.296875 306.902344 585.398438 307.917969 585.394531 308.941406 C 585.394531 309.96875 585.292969 310.984375 585.089844 311.988281 C 584.890625 312.996094 584.59375 313.96875 584.199219 314.917969 C 583.804688 315.863281 583.320312 316.761719 582.75 317.613281 C 582.175781 318.464844 581.527344 319.25 580.800781 319.976562 C 580.074219 320.699219 579.285156 321.34375 578.429688 321.910156 C 577.574219 322.476562 576.675781 322.957031 575.726562 323.34375 C 574.777344 323.734375 573.800781 324.027344 572.792969 324.222656 C 571.785156 324.421875 570.769531 324.515625 569.746094 324.511719 C 568.726562 324.507812 567.71875 324.40625 566.71875 324.203125 C 565.722656 324.003906 564.753906 323.707031 563.8125 323.3125 C 562.871094 322.921875 561.980469 322.445312 561.132812 321.875 C 560.285156 321.308594 559.503906 320.667969 558.78125 319.945312 C 558.0625 319.226562 557.417969 318.441406 556.851562 317.597656 C 556.285156 316.75 555.808594 315.855469 555.414062 314.917969 C 555.023438 313.976562 554.726562 313.007812 554.527344 312.007812 C 554.324219 311.011719 554.222656 310.003906 554.21875 308.984375 Z M 658.671875 364.667969 C 656.109375 367.472656 653.285156 369.980469 650.195312 372.191406 C 647.109375 374.40625 643.824219 376.273438 640.347656 377.796875 C 636.867188 379.324219 633.269531 380.472656 629.550781 381.246094 C 625.832031 382.015625 622.070312 382.394531 618.273438 382.382812 C 616.785156 382.375 615.300781 382.308594 613.820312 382.183594 C 612.339844 382.054688 610.863281 381.871094 609.398438 381.625 C 607.929688 381.382812 606.476562 381.078125 605.035156 380.714844 C 603.59375 380.355469 602.167969 379.9375 600.757812 379.460938 C 599.351562 378.980469 597.964844 378.449219 596.597656 377.863281 C 595.230469 377.273438 593.890625 376.632812 592.578125 375.933594 C 591.265625 375.238281 589.980469 374.492188 588.726562 373.691406 C 587.472656 372.890625 586.253906 372.042969 585.066406 371.144531 C 583.882812 370.246094 582.734375 369.304688 581.625 368.3125 C 580.515625 367.324219 579.449219 366.289062 578.421875 365.214844 C 577.398438 364.136719 576.414062 363.019531 575.480469 361.867188 C 574.542969 360.710938 573.65625 359.519531 572.816406 358.292969 C 571.972656 357.066406 571.183594 355.808594 570.445312 354.519531 C 569.707031 353.226562 569.019531 351.910156 568.386719 350.5625 C 567.753906 349.21875 567.175781 347.847656 566.65625 346.457031 C 566.132812 345.066406 565.667969 343.65625 565.257812 342.226562 L 563.195312 335.792969 C 565.34375 336.332031 567.527344 336.617188 569.746094 336.644531 C 570.65625 336.644531 571.5625 336.601562 572.464844 336.515625 C 573.371094 336.429688 574.269531 336.296875 575.160156 336.121094 C 576.050781 335.945312 576.933594 335.726562 577.804688 335.464844 C 578.671875 335.203125 579.527344 334.898438 580.367188 334.554688 C 581.207031 334.207031 582.03125 333.820312 582.832031 333.394531 C 583.632812 332.964844 584.414062 332.5 585.167969 331.996094 C 585.925781 331.492188 586.65625 330.953125 587.359375 330.378906 C 588.0625 329.804688 588.734375 329.195312 589.378906 328.554688 C 590.023438 327.910156 590.632812 327.238281 591.210938 326.539062 C 591.789062 325.835938 592.332031 325.109375 592.835938 324.351562 C 593.34375 323.597656 593.808594 322.820312 594.238281 322.019531 C 594.667969 321.21875 595.058594 320.398438 595.40625 319.558594 C 595.753906 318.71875 596.0625 317.867188 596.324219 316.996094 C 596.589844 316.128906 596.8125 315.246094 596.992188 314.355469 C 597.167969 313.464844 597.300781 312.566406 597.390625 311.664062 C 597.480469 310.757812 597.527344 309.851562 597.527344 308.941406 C 597.527344 308.035156 597.484375 307.128906 597.394531 306.222656 C 597.308594 305.320312 597.175781 304.421875 597 303.53125 C 596.820312 302.636719 596.601562 301.757812 596.335938 300.886719 C 596.074219 300.019531 595.769531 299.164062 595.421875 298.324219 C 595.074219 297.484375 594.6875 296.664062 594.257812 295.863281 C 593.828125 295.058594 593.363281 294.28125 592.859375 293.527344 C 592.355469 292.769531 591.8125 292.042969 591.238281 291.339844 C 590.660156 290.636719 590.050781 289.964844 589.410156 289.320312 C 588.765625 288.679688 588.09375 288.070312 587.390625 287.492188 C 586.6875 286.914062 585.960938 286.375 585.203125 285.871094 C 584.449219 285.367188 583.667969 284.898438 582.867188 284.472656 C 582.066406 284.042969 581.246094 283.65625 580.40625 283.308594 C 579.566406 282.960938 578.710938 282.65625 577.839844 282.390625 C 576.972656 282.128906 576.089844 281.90625 575.199219 281.730469 C 574.308594 281.554688 573.410156 281.421875 572.507812 281.332031 C 571.601562 281.246094 570.695312 281.199219 569.785156 281.203125 C 568.878906 281.203125 567.972656 281.246094 567.066406 281.335938 C 566.164062 281.425781 565.265625 281.5625 564.375 281.738281 C 563.484375 281.917969 562.601562 282.136719 561.734375 282.402344 C 560.863281 282.667969 560.007812 282.976562 559.171875 283.324219 C 558.332031 283.671875 557.511719 284.0625 556.710938 284.492188 C 555.910156 284.917969 555.132812 285.386719 554.375 285.894531 C 553.621094 286.398438 552.894531 286.941406 552.191406 287.519531 C 551.488281 288.09375 550.816406 288.707031 550.175781 289.347656 C 549.535156 289.992188 548.925781 290.667969 548.351562 291.371094 C 547.773438 292.074219 547.234375 292.804688 546.730469 293.558594 C 546.226562 294.316406 545.761719 295.09375 545.335938 295.898438 C 544.910156 296.699219 544.523438 297.519531 544.175781 298.359375 C 543.828125 299.203125 543.527344 300.054688 543.261719 300.925781 C 543 301.796875 542.78125 302.675781 542.605469 303.570312 C 542.429688 304.460938 542.300781 305.359375 542.214844 306.261719 C 542.125 307.167969 542.082031 308.074219 542.085938 308.984375 C 542.09375 311.804688 542.539062 314.554688 543.417969 317.234375 L 480.457031 317.234375 C 481.375 314.558594 481.859375 311.808594 481.910156 308.984375 C 481.914062 308.074219 481.871094 307.167969 481.785156 306.261719 C 481.695312 305.359375 481.566406 304.460938 481.390625 303.570312 C 481.214844 302.675781 480.996094 301.796875 480.734375 300.925781 C 480.472656 300.054688 480.167969 299.203125 479.820312 298.359375 C 479.472656 297.519531 479.085938 296.699219 478.660156 295.898438 C 478.234375 295.09375 477.769531 294.316406 477.265625 293.558594 C 476.761719 292.804688 476.222656 292.074219 475.644531 291.371094 C 475.070312 290.667969 474.460938 289.992188 473.820312 289.347656 C 473.179688 288.707031 472.507812 288.09375 471.804688 287.519531 C 471.105469 286.941406 470.375 286.398438 469.621094 285.894531 C 468.867188 285.386719 468.085938 284.917969 467.285156 284.492188 C 466.484375 284.0625 465.664062 283.671875 464.828125 283.324219 C 463.988281 282.976562 463.132812 282.667969 462.261719 282.402344 C 461.394531 282.136719 460.515625 281.917969 459.621094 281.738281 C 458.730469 281.5625 457.832031 281.425781 456.929688 281.335938 C 456.023438 281.246094 455.117188 281.203125 454.210938 281.203125 C 453.300781 281.199219 452.394531 281.246094 451.492188 281.332031 C 450.585938 281.421875 449.6875 281.554688 448.796875 281.730469 C 447.90625 281.90625 447.023438 282.128906 446.15625 282.390625 C 445.285156 282.65625 444.429688 282.960938 443.589844 283.308594 C 442.75 283.65625 441.929688 284.042969 441.128906 284.472656 C 440.328125 284.898438 439.546875 285.367188 438.792969 285.871094 C 438.039062 286.375 437.308594 286.914062 436.605469 287.492188 C 435.902344 288.070312 435.230469 288.679688 434.589844 289.320312 C 433.945312 289.964844 433.335938 290.636719 432.757812 291.339844 C 432.183594 292.042969 431.640625 292.769531 431.136719 293.527344 C 430.632812 294.28125 430.167969 295.058594 429.738281 295.863281 C 429.308594 296.664062 428.921875 297.484375 428.574219 298.324219 C 428.226562 299.164062 427.921875 300.019531 427.660156 300.886719 C 427.394531 301.757812 427.175781 302.636719 427 303.53125 C 426.820312 304.421875 426.6875 305.320312 426.601562 306.222656 C 426.511719 307.128906 426.46875 308.035156 426.46875 308.941406 C 426.46875 309.851562 426.515625 310.757812 426.605469 311.664062 C 426.695312 312.566406 426.828125 313.464844 427.007812 314.355469 C 427.183594 315.246094 427.40625 316.128906 427.671875 316.996094 C 427.933594 317.867188 428.242188 318.71875 428.589844 319.558594 C 428.9375 320.398438 429.328125 321.21875 429.757812 322.019531 C 430.1875 322.820312 430.652344 323.597656 431.160156 324.351562 C 431.664062 325.109375 432.207031 325.835938 432.785156 326.539062 C 433.363281 327.238281 433.972656 327.910156 434.617188 328.554688 C 435.261719 329.195312 435.933594 329.804688 436.636719 330.378906 C 437.339844 330.953125 438.070312 331.492188 438.828125 331.996094 C 439.582031 332.5 440.363281 332.964844 441.164062 333.394531 C 441.964844 333.820312 442.789062 334.207031 443.628906 334.554688 C 444.46875 334.898438 445.324219 335.203125 446.195312 335.464844 C 447.0625 335.726562 447.945312 335.945312 448.835938 336.121094 C 449.726562 336.296875 450.625 336.429688 451.53125 336.515625 C 452.433594 336.601562 453.339844 336.644531 454.25 336.644531 C 456.558594 336.628906 458.824219 336.304688 461.042969 335.671875 L 458.738281 342.46875 C 458.332031 343.890625 457.867188 345.296875 457.34375 346.683594 C 456.820312 348.070312 456.246094 349.433594 455.613281 350.777344 C 454.980469 352.117188 454.296875 353.429688 453.558594 354.714844 C 452.820312 356 452.03125 357.253906 451.191406 358.472656 C 450.355469 359.695312 449.46875 360.882812 448.53125 362.03125 C 447.597656 363.183594 446.617188 364.292969 445.59375 365.363281 C 444.570312 366.433594 443.503906 367.460938 442.398438 368.445312 C 441.289062 369.433594 440.144531 370.371094 438.960938 371.265625 C 437.777344 372.15625 436.5625 373 435.3125 373.792969 C 434.058594 374.589844 432.777344 375.332031 431.46875 376.023438 C 430.15625 376.714844 428.820312 377.351562 427.457031 377.933594 C 426.097656 378.515625 424.710938 379.042969 423.308594 379.515625 C 421.902344 379.988281 420.480469 380.402344 419.042969 380.757812 C 417.605469 381.117188 416.152344 381.414062 414.691406 381.65625 C 413.230469 381.894531 411.757812 382.074219 410.28125 382.195312 C 408.804688 382.316406 407.328125 382.378906 405.84375 382.382812 C 404.898438 382.378906 403.953125 382.355469 403.011719 382.304688 C 402.066406 382.257812 401.125 382.183594 400.1875 382.085938 C 399.246094 381.984375 398.308594 381.863281 397.375 381.71875 C 396.441406 381.570312 395.511719 381.402344 394.585938 381.207031 C 393.664062 381.011719 392.742188 380.796875 391.828125 380.554688 C 390.917969 380.3125 390.007812 380.046875 389.109375 379.757812 C 388.210938 379.472656 387.316406 379.160156 386.433594 378.824219 C 385.550781 378.492188 384.675781 378.136719 383.808594 377.757812 C 382.941406 377.378906 382.089844 376.976562 381.242188 376.554688 C 380.398438 376.128906 379.566406 375.683594 378.742188 375.21875 C 377.921875 374.753906 377.109375 374.265625 376.3125 373.757812 C 375.515625 373.25 374.734375 372.722656 373.964844 372.175781 C 373.195312 371.625 372.4375 371.058594 371.699219 370.472656 C 370.957031 369.882812 370.234375 369.277344 369.523438 368.652344 C 368.8125 368.03125 368.121094 367.386719 367.445312 366.726562 C 366.769531 366.066406 366.109375 365.390625 365.46875 364.695312 C 364.828125 364.003906 364.203125 363.292969 363.597656 362.566406 C 362.992188 361.839844 362.40625 361.097656 361.839844 360.34375 C 361.273438 359.585938 360.726562 358.816406 360.199219 358.03125 C 359.671875 357.246094 359.167969 356.449219 358.679688 355.640625 C 358.195312 354.828125 357.730469 354.007812 357.285156 353.171875 C 356.84375 352.339844 356.421875 351.492188 356.019531 350.636719 C 355.621094 349.78125 355.242188 348.914062 354.886719 348.039062 C 354.53125 347.164062 354.199219 346.28125 353.890625 345.386719 C 353.578125 344.492188 353.292969 343.59375 353.027344 342.6875 C 352.765625 341.777344 352.523438 340.867188 352.308594 339.945312 C 352.089844 339.027344 351.898438 338.101562 351.730469 337.171875 C 351.5625 336.242188 351.414062 335.308594 351.292969 334.371094 C 351.175781 333.433594 351.078125 332.492188 351.003906 331.550781 C 350.933594 330.609375 350.882812 329.664062 350.859375 328.722656 C 350.835938 327.777344 350.835938 326.832031 350.859375 325.886719 C 350.886719 324.941406 350.933594 324 351.007812 323.054688 L 356.105469 258.152344 C 356.242188 256.445312 356.457031 254.75 356.753906 253.0625 C 357.050781 251.375 357.421875 249.707031 357.875 248.054688 C 358.324219 246.40625 358.851562 244.777344 359.453125 243.175781 C 360.054688 241.570312 360.730469 240 361.476562 238.460938 C 362.226562 236.921875 363.042969 235.417969 363.929688 233.953125 C 364.816406 232.492188 365.769531 231.070312 366.789062 229.695312 C 367.808594 228.320312 368.890625 226.996094 370.03125 225.71875 C 371.171875 224.445312 372.371094 223.226562 373.628906 222.0625 C 374.882812 220.898438 376.191406 219.792969 377.546875 218.753906 C 378.90625 217.710938 380.308594 216.734375 381.757812 215.820312 C 383.207031 214.910156 384.695312 214.066406 386.222656 213.292969 C 387.746094 212.515625 389.308594 211.816406 390.898438 211.1875 C 392.492188 210.558594 394.109375 210.003906 395.753906 209.523438 C 397.398438 209.046875 399.058594 208.644531 400.738281 208.320312 C 402.421875 207.996094 404.113281 207.75 405.816406 207.582031 C 407.519531 207.414062 409.226562 207.328125 410.941406 207.320312 L 459.953125 207.320312 L 470.871094 244.804688 C 471.042969 245.445312 471.3125 246.042969 471.683594 246.597656 C 472.050781 247.148438 472.5 247.628906 473.023438 248.03125 C 473.550781 248.4375 474.128906 248.75 474.757812 248.964844 C 475.382812 249.179688 476.03125 249.289062 476.695312 249.292969 L 542.449219 249.292969 C 543.113281 249.289062 543.757812 249.179688 544.386719 248.964844 C 545.015625 248.75 545.59375 248.4375 546.117188 248.03125 C 546.644531 247.628906 547.089844 247.148438 547.460938 246.597656 C 547.828125 246.042969 548.101562 245.445312 548.273438 244.804688 L 559.191406 207.320312 L 613.179688 207.320312 C 614.890625 207.328125 616.597656 207.414062 618.300781 207.582031 C 620.003906 207.75 621.695312 207.996094 623.378906 208.320312 C 625.058594 208.644531 626.722656 209.046875 628.363281 209.523438 C 630.007812 210.003906 631.625 210.558594 633.21875 211.1875 C 634.808594 211.816406 636.371094 212.515625 637.898438 213.292969 C 639.421875 214.066406 640.910156 214.910156 642.359375 215.820312 C 643.808594 216.734375 645.210938 217.710938 646.570312 218.753906 C 647.929688 219.792969 649.234375 220.898438 650.488281 222.0625 C 651.746094 223.226562 652.945312 224.445312 654.085938 225.71875 C 655.230469 226.996094 656.308594 228.320312 657.328125 229.695312 C 658.347656 231.070312 659.300781 232.492188 660.1875 233.953125 C 661.074219 235.417969 661.894531 236.921875 662.640625 238.460938 C 663.386719 240 664.0625 241.570312 664.664062 243.175781 C 665.265625 244.777344 665.792969 246.40625 666.242188 248.054688 C 666.695312 249.707031 667.066406 251.375 667.363281 253.0625 C 667.660156 254.75 667.875 256.445312 668.015625 258.152344 L 673.230469 323.054688 C 673.535156 326.839844 673.445312 330.613281 672.960938 334.378906 C 672.472656 338.144531 671.605469 341.820312 670.351562 345.402344 C 669.097656 348.984375 667.488281 352.398438 665.519531 355.644531 C 663.550781 358.890625 661.269531 361.898438 658.671875 364.667969 Z M 658.671875 364.667969 " fill-opacity="1" fill-rule="nonzero"/><path fill="#ffc107" d="M 488.339844 275.910156 L 500.035156 275.910156 C 500.433594 275.910156 500.828125 275.949219 501.21875 276.027344 C 501.609375 276.105469 501.988281 276.222656 502.359375 276.375 C 502.726562 276.527344 503.074219 276.714844 503.40625 276.933594 C 503.738281 277.15625 504.042969 277.40625 504.324219 277.6875 C 504.605469 277.96875 504.859375 278.277344 505.078125 278.609375 C 505.300781 278.9375 505.488281 279.289062 505.640625 279.65625 C 505.792969 280.023438 505.90625 280.402344 505.984375 280.792969 C 506.0625 281.183594 506.101562 281.578125 506.101562 281.976562 L 506.101562 284.355469 C 506.101562 284.753906 506.0625 285.148438 505.984375 285.539062 C 505.90625 285.929688 505.792969 286.308594 505.640625 286.675781 C 505.488281 287.046875 505.300781 287.394531 505.078125 287.726562 C 504.859375 288.058594 504.605469 288.363281 504.324219 288.644531 C 504.042969 288.925781 503.738281 289.179688 503.40625 289.398438 C 503.074219 289.621094 502.726562 289.808594 502.359375 289.960938 C 501.988281 290.113281 501.609375 290.226562 501.21875 290.304688 C 500.828125 290.382812 500.433594 290.421875 500.035156 290.421875 L 488.339844 290.421875 C 487.941406 290.421875 487.546875 290.382812 487.15625 290.304688 C 486.765625 290.226562 486.386719 290.113281 486.019531 289.960938 C 485.652344 289.808594 485.300781 289.621094 484.972656 289.398438 C 484.640625 289.179688 484.332031 288.925781 484.050781 288.644531 C 483.769531 288.363281 483.519531 288.058594 483.296875 287.726562 C 483.074219 287.394531 482.890625 287.046875 482.738281 286.675781 C 482.585938 286.308594 482.46875 285.929688 482.390625 285.539062 C 482.3125 285.148438 482.273438 284.753906 482.273438 284.355469 L 482.273438 281.976562 C 482.273438 281.578125 482.3125 281.183594 482.390625 280.792969 C 482.46875 280.402344 482.585938 280.023438 482.738281 279.65625 C 482.890625 279.289062 483.074219 278.9375 483.296875 278.609375 C 483.519531 278.277344 483.769531 277.96875 484.050781 277.6875 C 484.332031 277.40625 484.640625 277.15625 484.972656 276.933594 C 485.300781 276.714844 485.652344 276.527344 486.019531 276.375 C 486.386719 276.222656 486.765625 276.105469 487.15625 276.027344 C 487.546875 275.949219 487.941406 275.910156 488.339844 275.910156 Z M 488.339844 275.910156 " fill-opacity="1" fill-rule="nonzero"/><path fill="#ffc107" d="M 524.738281 275.910156 L 536.433594 275.910156 C 536.828125 275.910156 537.222656 275.949219 537.613281 276.027344 C 538.003906 276.105469 538.386719 276.222656 538.753906 276.375 C 539.121094 276.527344 539.46875 276.714844 539.800781 276.933594 C 540.132812 277.15625 540.4375 277.40625 540.722656 277.6875 C 541.003906 277.96875 541.253906 278.277344 541.476562 278.609375 C 541.695312 278.9375 541.882812 279.289062 542.035156 279.65625 C 542.1875 280.023438 542.304688 280.402344 542.382812 280.792969 C 542.457031 281.183594 542.496094 281.578125 542.496094 281.976562 L 542.496094 284.355469 C 542.496094 284.753906 542.457031 285.148438 542.382812 285.539062 C 542.304688 285.929688 542.1875 286.308594 542.035156 286.675781 C 541.882812 287.046875 541.695312 287.394531 541.476562 287.726562 C 541.253906 288.058594 541.003906 288.363281 540.722656 288.644531 C 540.4375 288.925781 540.132812 289.179688 539.800781 289.398438 C 539.46875 289.621094 539.121094 289.808594 538.753906 289.960938 C 538.386719 290.113281 538.003906 290.226562 537.613281 290.304688 C 537.222656 290.382812 536.828125 290.421875 536.433594 290.421875 L 524.738281 290.421875 C 524.339844 290.421875 523.945312 290.382812 523.554688 290.304688 C 523.164062 290.226562 522.785156 290.113281 522.414062 289.960938 C 522.046875 289.808594 521.699219 289.621094 521.367188 289.398438 C 521.035156 289.179688 520.730469 288.925781 520.449219 288.644531 C 520.164062 288.363281 519.914062 288.058594 519.691406 287.726562 C 519.472656 287.394531 519.285156 287.046875 519.132812 286.675781 C 518.980469 286.308594 518.863281 285.929688 518.789062 285.539062 C 518.710938 285.148438 518.671875 284.753906 518.671875 284.355469 L 518.671875 281.976562 C 518.671875 281.578125 518.710938 281.183594 518.789062 280.792969 C 518.863281 280.402344 518.980469 280.023438 519.132812 279.65625 C 519.285156 279.289062 519.472656 278.9375 519.691406 278.609375 C 519.914062 278.277344 520.164062 277.96875 520.449219 277.6875 C 520.730469 277.40625 521.035156 277.15625 521.367188 276.933594 C 521.699219 276.714844 522.046875 276.527344 522.414062 276.375 C 522.785156 276.222656 523.164062 276.105469 523.554688 276.027344 C 523.945312 275.949219 524.339844 275.910156 524.738281 275.910156 Z M 524.738281 275.910156 " fill-opacity="1" fill-rule="nonzero"/><path fill="#ffc107" d="M 628.585938 237.40625 C 628.65625 238.101562 628.660156 238.796875 628.597656 239.496094 C 628.53125 240.191406 628.398438 240.875 628.203125 241.546875 C 628.003906 242.21875 627.742188 242.867188 627.417969 243.484375 C 627.09375 244.105469 626.710938 244.6875 626.273438 245.234375 C 625.832031 245.78125 625.347656 246.277344 624.808594 246.726562 C 624.273438 247.179688 623.699219 247.570312 623.085938 247.910156 C 622.472656 248.246094 621.832031 248.523438 621.167969 248.734375 C 620.5 248.949219 619.816406 249.09375 619.121094 249.171875 C 618.757812 249.171875 618.394531 249.292969 618.03125 249.292969 C 617.03125 249.285156 616.046875 249.136719 615.089844 248.851562 C 614.128906 248.566406 613.226562 248.15625 612.378906 247.621094 C 611.535156 247.082031 610.78125 246.441406 610.113281 245.691406 C 609.449219 244.945312 608.898438 244.121094 608.460938 243.21875 C 608.027344 242.316406 607.722656 241.371094 607.554688 240.386719 C 607.382812 239.398438 607.347656 238.40625 607.453125 237.410156 C 607.558594 236.414062 607.800781 235.453125 608.175781 234.523438 C 608.550781 233.597656 609.042969 232.738281 609.660156 231.945312 C 610.5625 230.867188 611.632812 229.996094 612.871094 229.324219 C 614.105469 228.65625 615.421875 228.234375 616.816406 228.0625 L 617.789062 228.0625 C 618.441406 228.054688 619.085938 228.105469 619.730469 228.214844 C 620.375 228.328125 621 228.492188 621.613281 228.71875 C 622.226562 228.941406 622.8125 229.21875 623.375 229.550781 C 623.9375 229.878906 624.464844 230.257812 624.960938 230.6875 C 625.453125 231.113281 625.902344 231.582031 626.3125 232.089844 C 626.71875 232.597656 627.078125 233.140625 627.386719 233.714844 C 627.699219 234.289062 627.953125 234.882812 628.15625 235.503906 C 628.355469 236.125 628.5 236.757812 628.585938 237.40625 Z M 628.585938 237.40625 " fill-opacity="1" fill-rule="nonzero"/><path fill="#ffc107" d="M 656.972656 255.480469 C 657.09375 256.761719 656.976562 258.019531 656.621094 259.257812 C 656.265625 260.492188 655.695312 261.621094 654.910156 262.640625 C 654.101562 263.644531 653.128906 264.453125 651.992188 265.0625 C 650.855469 265.675781 649.644531 266.039062 648.359375 266.15625 C 648.003906 266.257812 647.640625 266.300781 647.269531 266.277344 C 646.179688 266.289062 645.121094 266.101562 644.097656 265.726562 C 643.074219 265.351562 642.148438 264.808594 641.324219 264.09375 C 640.316406 263.304688 639.5 262.355469 638.867188 261.242188 C 638.238281 260.125 637.84375 258.933594 637.683594 257.664062 C 637.554688 256.382812 637.667969 255.125 638.023438 253.886719 C 638.382812 252.648438 638.957031 251.523438 639.746094 250.507812 C 640.144531 250.003906 640.585938 249.542969 641.074219 249.125 C 641.558594 248.707031 642.082031 248.34375 642.644531 248.03125 C 643.203125 247.714844 643.789062 247.460938 644.398438 247.265625 C 645.011719 247.066406 645.632812 246.933594 646.273438 246.859375 C 646.910156 246.785156 647.546875 246.773438 648.1875 246.828125 C 648.828125 246.882812 649.453125 246.996094 650.070312 247.175781 C 650.6875 247.351562 651.28125 247.589844 651.851562 247.886719 C 652.421875 248.179688 652.957031 248.527344 653.457031 248.929688 C 654.4375 249.757812 655.234375 250.738281 655.84375 251.871094 C 656.449219 253 656.828125 254.207031 656.972656 255.480469 Z M 656.972656 255.480469 " fill-opacity="1" fill-rule="nonzero"/><path fill="#ffc107" d="M 633.921875 279.261719 C 633.992188 279.910156 634 280.558594 633.945312 281.207031 C 633.890625 281.855469 633.769531 282.496094 633.589844 283.121094 C 633.410156 283.75 633.171875 284.351562 632.871094 284.933594 C 632.574219 285.511719 632.222656 286.058594 631.816406 286.570312 C 631.414062 287.082031 630.960938 287.546875 630.464844 287.972656 C 629.96875 288.394531 629.4375 288.769531 628.871094 289.085938 C 628.300781 289.40625 627.707031 289.667969 627.089844 289.875 C 626.46875 290.078125 625.835938 290.21875 625.1875 290.300781 L 623.976562 290.300781 C 622.851562 290.300781 621.757812 290.109375 620.695312 289.738281 C 619.632812 289.363281 618.664062 288.820312 617.789062 288.117188 C 616.773438 287.28125 615.953125 286.285156 615.324219 285.132812 C 614.695312 283.976562 614.304688 282.75 614.148438 281.445312 C 614.03125 280.460938 614.0625 279.484375 614.238281 278.511719 C 614.410156 277.535156 614.726562 276.609375 615.179688 275.730469 C 615.632812 274.851562 616.203125 274.058594 616.890625 273.347656 C 617.582031 272.640625 618.359375 272.046875 619.226562 271.570312 C 620.09375 271.09375 621.011719 270.757812 621.980469 270.554688 C 622.949219 270.355469 623.925781 270.296875 624.910156 270.390625 C 625.894531 270.480469 626.847656 270.710938 627.761719 271.085938 C 628.675781 271.460938 629.519531 271.960938 630.285156 272.585938 C 631.320312 273.40625 632.152344 274.394531 632.785156 275.554688 C 633.414062 276.710938 633.796875 277.945312 633.921875 279.261719 Z M 633.921875 279.261719 " fill-opacity="1" fill-rule="nonzero"/><path fill="#ffc107" d="M 605.171875 261.183594 L 605.171875 261.304688 C 605.238281 261.957031 605.242188 262.609375 605.183594 263.265625 C 605.125 263.917969 605.003906 264.558594 604.816406 265.1875 C 604.632812 265.820312 604.386719 266.425781 604.085938 267.007812 C 603.78125 267.589844 603.425781 268.136719 603.011719 268.648438 C 602.601562 269.160156 602.144531 269.625 601.644531 270.046875 C 601.140625 270.472656 600.605469 270.839844 600.03125 271.15625 C 599.453125 271.476562 598.855469 271.734375 598.230469 271.933594 C 597.605469 272.132812 596.964844 272.269531 596.316406 272.34375 L 595.222656 272.34375 C 594.277344 272.351562 593.351562 272.222656 592.445312 271.964844 C 591.535156 271.703125 590.683594 271.324219 589.882812 270.824219 C 589.082031 270.320312 588.371094 269.71875 587.742188 269.011719 C 587.113281 268.308594 586.59375 267.53125 586.1875 266.675781 C 585.78125 265.824219 585.5 264.933594 585.347656 264.003906 C 585.195312 263.070312 585.175781 262.136719 585.285156 261.199219 C 585.398438 260.261719 585.640625 259.359375 586.007812 258.488281 C 586.378906 257.621094 586.863281 256.820312 587.457031 256.089844 C 588.269531 255.042969 589.253906 254.203125 590.414062 253.570312 C 591.574219 252.9375 592.8125 252.5625 594.132812 252.449219 C 594.78125 252.375 595.429688 252.363281 596.082031 252.414062 C 596.734375 252.46875 597.375 252.582031 598 252.761719 C 598.628906 252.941406 599.234375 253.179688 599.816406 253.476562 C 600.398438 253.773438 600.945312 254.125 601.457031 254.53125 C 601.972656 254.9375 602.4375 255.390625 602.863281 255.886719 C 603.285156 256.382812 603.65625 256.917969 603.976562 257.488281 C 604.292969 258.058594 604.554688 258.65625 604.753906 259.277344 C 604.957031 259.898438 605.09375 260.535156 605.171875 261.183594 Z M 605.171875 261.183594 " fill-opacity="1" fill-rule="nonzero"/><path fill="#ffc107" d="M 417.164062 256.816406 L 411.304688 255.105469 L 413.015625 249.210938 C 413.207031 248.523438 413.332031 247.828125 413.390625 247.117188 C 413.449219 246.410156 413.4375 245.703125 413.355469 244.996094 C 413.273438 244.289062 413.125 243.59375 412.910156 242.917969 C 412.691406 242.238281 412.414062 241.589844 412.070312 240.964844 C 411.726562 240.34375 411.324219 239.757812 410.867188 239.214844 C 410.410156 238.667969 409.902344 238.175781 409.347656 237.730469 C 408.792969 237.28125 408.203125 236.894531 407.570312 236.566406 C 406.941406 236.234375 406.285156 235.96875 405.601562 235.769531 L 404.386719 235.414062 C 403.703125 235.222656 403.007812 235.097656 402.296875 235.039062 C 401.589844 234.980469 400.878906 234.992188 400.171875 235.074219 C 399.464844 235.15625 398.773438 235.304688 398.097656 235.519531 C 397.417969 235.738281 396.769531 236.019531 396.144531 236.359375 C 395.523438 236.703125 394.9375 237.105469 394.394531 237.5625 C 393.847656 238.019531 393.351562 238.527344 392.90625 239.082031 C 392.460938 239.636719 392.074219 240.230469 391.742188 240.859375 C 391.414062 241.488281 391.148438 242.144531 390.945312 242.828125 L 389.234375 248.710938 L 383.339844 247.015625 C 382.65625 246.820312 381.957031 246.695312 381.25 246.636719 C 380.542969 246.578125 379.832031 246.589844 379.125 246.671875 C 378.421875 246.753906 377.726562 246.898438 377.050781 247.117188 C 376.371094 247.332031 375.722656 247.613281 375.097656 247.953125 C 374.476562 248.296875 373.890625 248.699219 373.347656 249.15625 C 372.804688 249.613281 372.308594 250.117188 371.859375 250.671875 C 371.414062 251.226562 371.027344 251.816406 370.695312 252.445312 C 370.367188 253.078125 370.101562 253.734375 369.898438 254.414062 L 369.546875 255.628906 C 369.351562 256.3125 369.226562 257.011719 369.167969 257.71875 C 369.109375 258.429688 369.121094 259.136719 369.199219 259.847656 C 369.28125 260.554688 369.429688 261.246094 369.644531 261.925781 C 369.863281 262.605469 370.140625 263.253906 370.484375 263.878906 C 370.828125 264.503906 371.230469 265.085938 371.6875 265.632812 C 372.148438 266.175781 372.652344 266.671875 373.207031 267.121094 C 373.761719 267.566406 374.355469 267.953125 374.988281 268.285156 C 375.617188 268.613281 376.273438 268.878906 376.957031 269.082031 L 382.84375 270.78125 L 381.144531 276.675781 C 380.949219 277.359375 380.824219 278.058594 380.765625 278.765625 C 380.710938 279.476562 380.722656 280.183594 380.804688 280.890625 C 380.882812 281.597656 381.03125 282.289062 381.25 282.96875 C 381.464844 283.644531 381.746094 284.296875 382.089844 284.917969 C 382.433594 285.542969 382.832031 286.125 383.292969 286.671875 C 383.75 287.214844 384.253906 287.710938 384.808594 288.15625 C 385.363281 288.601562 385.957031 288.992188 386.585938 289.320312 C 387.21875 289.652344 387.875 289.917969 388.554688 290.117188 L 389.769531 290.480469 C 390.753906 290.761719 391.757812 290.902344 392.777344 290.90625 C 393.363281 290.90625 393.941406 290.855469 394.519531 290.761719 C 395.09375 290.664062 395.660156 290.523438 396.214844 290.339844 C 396.765625 290.152344 397.300781 289.925781 397.820312 289.652344 C 398.335938 289.378906 398.828125 289.070312 399.292969 288.71875 C 399.761719 288.367188 400.199219 287.980469 400.601562 287.5625 C 401.007812 287.140625 401.375 286.691406 401.710938 286.210938 C 402.042969 285.730469 402.335938 285.226562 402.585938 284.699219 C 402.839844 284.171875 403.046875 283.628906 403.210938 283.070312 L 404.921875 277.171875 L 410.804688 278.871094 C 411.800781 279.164062 412.816406 279.308594 413.851562 279.308594 C 414.433594 279.304688 415.011719 279.253906 415.589844 279.160156 C 416.164062 279.0625 416.726562 278.921875 417.277344 278.734375 C 417.832031 278.546875 418.367188 278.320312 418.882812 278.046875 C 419.398438 277.773438 419.886719 277.464844 420.351562 277.113281 C 420.820312 276.761719 421.253906 276.378906 421.65625 275.957031 C 422.0625 275.535156 422.429688 275.085938 422.761719 274.605469 C 423.09375 274.128906 423.386719 273.625 423.636719 273.097656 C 423.886719 272.574219 424.097656 272.03125 424.261719 271.472656 L 424.625 270.257812 C 424.816406 269.574219 424.945312 268.875 425 268.167969 C 425.058594 267.457031 425.046875 266.75 424.964844 266.042969 C 424.882812 265.335938 424.734375 264.644531 424.519531 263.964844 C 424.300781 263.289062 424.023438 262.636719 423.679688 262.015625 C 423.335938 261.390625 422.933594 260.808594 422.476562 260.261719 C 422.019531 259.71875 421.511719 259.222656 420.957031 258.777344 C 420.402344 258.332031 419.8125 257.945312 419.179688 257.613281 C 418.550781 257.285156 417.894531 257.019531 417.210938 256.816406 Z M 417.164062 256.816406 " fill-opacity="1" fill-rule="nonzero"/><path fill="#ffc107" d="M 497.707031 229.691406 L 521.4375 229.691406 C 521.835938 229.691406 522.230469 229.652344 522.621094 229.574219 C 523.011719 229.496094 523.390625 229.378906 523.757812 229.226562 C 524.125 229.074219 524.476562 228.886719 524.808594 228.667969 C 525.136719 228.445312 525.445312 228.195312 525.726562 227.914062 C 526.007812 227.632812 526.257812 227.324219 526.480469 226.992188 C 526.703125 226.664062 526.886719 226.3125 527.039062 225.945312 C 527.195312 225.578125 527.308594 225.199219 527.386719 224.808594 C 527.464844 224.417969 527.503906 224.023438 527.503906 223.625 C 527.503906 223.226562 527.464844 222.832031 527.386719 222.441406 C 527.308594 222.050781 527.195312 221.671875 527.039062 221.300781 C 526.886719 220.933594 526.703125 220.585938 526.480469 220.253906 C 526.257812 219.921875 526.007812 219.617188 525.726562 219.335938 C 525.445312 219.050781 525.136719 218.800781 524.808594 218.578125 C 524.476562 218.359375 524.125 218.171875 523.757812 218.019531 C 523.390625 217.867188 523.011719 217.75 522.621094 217.675781 C 522.230469 217.597656 521.835938 217.558594 521.4375 217.558594 L 497.707031 217.558594 C 497.308594 217.558594 496.914062 217.597656 496.523438 217.675781 C 496.132812 217.75 495.753906 217.867188 495.386719 218.019531 C 495.015625 218.171875 494.667969 218.359375 494.335938 218.578125 C 494.003906 218.800781 493.699219 219.050781 493.417969 219.335938 C 493.136719 219.617188 492.882812 219.921875 492.664062 220.253906 C 492.441406 220.585938 492.253906 220.933594 492.101562 221.300781 C 491.949219 221.671875 491.835938 222.050781 491.757812 222.441406 C 491.679688 222.832031 491.640625 223.226562 491.640625 223.625 C 491.640625 224.023438 491.679688 224.417969 491.757812 224.808594 C 491.835938 225.199219 491.949219 225.578125 492.101562 225.945312 C 492.253906 226.3125 492.441406 226.664062 492.664062 226.992188 C 492.882812 227.324219 493.136719 227.632812 493.417969 227.914062 C 493.699219 228.195312 494.003906 228.445312 494.335938 228.667969 C 494.667969 228.886719 495.015625 229.074219 495.386719 229.226562 C 495.753906 229.378906 496.132812 229.496094 496.523438 229.574219 C 496.914062 229.652344 497.308594 229.691406 497.707031 229.691406 Z M 497.707031 229.691406 " fill-opacity="1" fill-rule="nonzero"/></svg>