<svg xmlns="http://www.w3.org/2000/svg" xmlns:xlink="http://www.w3.org/1999/xlink" width="1366" zoomAndPan="magnify" viewBox="0 0 1024.5 576" height="768" preserveAspectRatio="xMidYMid meet" version="1.0"><defs><clipPath id="a5493c8a74"><path d="M 405.636719 172.855469 L 618 172.855469 L 618 402.992188 L 405.636719 402.992188 Z M 405.636719 172.855469 " clip-rule="nonzero"/></clipPath></defs><path fill="#ffc107" d="M 445.988281 184.875 C 444.605469 184.875 443.484375 185.996094 443.484375 187.375 L 443.484375 388.488281 C 443.484375 389.871094 444.605469 390.992188 445.988281 390.992188 L 482.773438 390.992188 C 483.417969 391.113281 542.199219 391.113281 542.855469 390.992188 L 579.640625 390.992188 C 581.023438 390.992188 582.144531 389.871094 582.144531 388.488281 L 582.144531 187.375 C 582.144531 185.996094 581.023438 184.875 579.640625 184.875 Z M 547.835938 351.476562 C 547.839844 351.460938 547.839844 351.445312 547.835938 351.429688 L 547.835938 348.003906 L 564.984375 348.003906 L 564.984375 354.898438 L 547.835938 354.898438 Z M 565.191406 343 L 547.625 343 C 544.40625 342.992188 542.449219 345.917969 542.828125 348.953125 L 526.394531 348.953125 C 526.773438 345.917969 524.816406 342.996094 521.597656 343 C 521.597656 343 504.027344 343 504.027344 343 C 500.816406 342.992188 498.847656 345.917969 499.230469 348.953125 L 482.796875 348.953125 C 483.175781 345.917969 481.21875 342.996094 478 343 C 478 343 460.429688 343 460.429688 343 C 457.222656 342.992188 455.253906 345.914062 455.636719 348.945312 L 448.492188 348.945312 L 448.492188 327.015625 L 477.433594 327.015625 C 477.054688 330.050781 479.011719 332.976562 482.230469 332.96875 C 482.230469 332.96875 499.800781 332.96875 499.800781 332.96875 C 503.011719 332.976562 504.980469 330.050781 504.597656 327.015625 L 521.03125 327.015625 C 520.652344 330.050781 522.609375 332.976562 525.828125 332.96875 C 525.828125 332.96875 543.398438 332.96875 543.398438 332.96875 C 546.609375 332.976562 548.574219 330.050781 548.191406 327.015625 L 577.136719 327.015625 L 577.136719 348.960938 L 569.992188 348.960938 C 570.371094 345.925781 568.414062 342.996094 565.191406 343 Z M 521.386719 348.003906 L 521.386719 354.898438 L 504.238281 354.898438 L 504.238281 348.003906 Z M 460.640625 351.472656 C 460.648438 351.453125 460.648438 351.441406 460.640625 351.425781 L 460.640625 348.003906 L 477.792969 348.003906 C 477.792969 349.746094 477.792969 353.160156 477.792969 354.898438 L 460.640625 354.898438 Z M 477.792969 224.382812 C 477.792969 224.476562 477.792969 227.761719 477.792969 227.859375 L 460.640625 227.859375 L 460.640625 224.496094 C 460.660156 224.4375 460.660156 224.386719 460.640625 224.324219 L 460.640625 220.960938 L 477.792969 220.960938 Z M 460.429688 232.863281 L 478 232.863281 C 481.210938 232.867188 483.175781 229.949219 482.796875 226.917969 L 499.230469 226.917969 C 498.851562 229.949219 500.816406 232.867188 504.027344 232.859375 C 504.027344 232.859375 521.597656 232.859375 521.597656 232.859375 C 524.808594 232.867188 526.773438 229.949219 526.394531 226.917969 L 542.828125 226.917969 C 542.453125 229.949219 544.410156 232.867188 547.625 232.859375 C 547.625 232.859375 565.191406 232.859375 565.191406 232.859375 C 568.398438 232.867188 570.371094 229.949219 569.992188 226.917969 L 577.136719 226.917969 L 577.136719 250.441406 L 548.191406 250.441406 C 548.570312 247.40625 546.613281 244.484375 543.398438 244.492188 C 543.398438 244.492188 525.828125 244.492188 525.828125 244.492188 C 522.609375 244.484375 520.648438 247.417969 521.03125 250.453125 L 504.597656 250.453125 C 504.976562 247.414062 503.023438 244.484375 499.800781 244.492188 C 499.800781 244.492188 482.230469 244.492188 482.230469 244.492188 C 479.015625 244.484375 477.050781 247.410156 477.433594 250.445312 L 448.492188 250.445312 L 448.492188 226.910156 L 455.636719 226.910156 C 455.257812 229.941406 457.21875 232.863281 460.429688 232.855469 Z M 504.238281 227.859375 L 504.238281 220.964844 L 521.386719 220.964844 L 521.386719 227.859375 Z M 564.984375 227.859375 L 547.835938 227.859375 L 547.835938 224.441406 C 547.839844 224.421875 547.839844 224.410156 547.835938 224.394531 L 547.835938 220.964844 L 564.984375 220.964844 Z M 543.1875 324.5 C 543.1875 324.515625 543.1875 327.945312 543.1875 327.964844 L 526.035156 327.964844 L 526.035156 321.070312 L 543.1875 321.070312 L 543.1875 324.503906 Z M 543.398438 316.0625 L 525.828125 316.0625 C 522.613281 316.058594 520.648438 318.976562 521.03125 322.007812 L 504.597656 322.007812 C 504.976562 318.976562 503.015625 316.054688 499.800781 316.0625 C 499.800781 316.0625 482.230469 316.0625 482.230469 316.0625 C 479.019531 316.054688 477.054688 318.976562 477.433594 322.007812 L 448.492188 322.007812 L 448.492188 292.039062 L 495.722656 292.039062 C 498.976562 311.640625 526.667969 311.625 529.914062 292.039062 L 577.136719 292.039062 L 577.136719 322.007812 L 548.195312 322.007812 C 548.574219 318.976562 546.613281 316.054688 543.398438 316.0625 Z M 482.441406 324.613281 C 482.460938 324.542969 482.460938 324.484375 482.441406 324.417969 L 482.441406 321.066406 L 499.589844 321.066406 L 499.589844 327.960938 L 482.441406 327.960938 L 482.441406 324.609375 Z M 499.589844 256.394531 L 482.441406 256.394531 C 482.441406 254.65625 482.441406 251.238281 482.441406 249.5 L 499.589844 249.5 Z M 482.230469 261.402344 L 499.800781 261.402344 C 503.007812 261.40625 504.976562 258.488281 504.597656 255.460938 L 521.03125 255.460938 C 520.652344 258.492188 522.617188 261.40625 525.828125 261.402344 C 525.828125 261.402344 543.398438 261.402344 543.398438 261.402344 C 546.609375 261.40625 548.574219 258.480469 548.191406 255.449219 L 577.136719 255.449219 L 577.136719 287.035156 L 529.910156 287.035156 C 526.660156 267.429688 498.964844 267.445312 495.722656 287.035156 L 448.488281 287.035156 L 448.488281 255.457031 L 477.433594 255.457031 C 477.054688 258.488281 479.015625 261.40625 482.226562 261.402344 Z M 543.1875 252.933594 C 543.1875 252.949219 543.1875 256.375 543.1875 256.394531 L 526.035156 256.394531 L 526.035156 249.5 L 543.1875 249.5 Z M 525.105469 289.539062 C 524.589844 305.78125 501.039062 305.773438 500.527344 289.539062 C 501.046875 273.292969 524.59375 273.296875 525.105469 289.539062 Z M 540.042969 189.941406 L 540.042969 197.941406 C 540.042969 199.441406 538.824219 200.65625 537.324219 200.65625 L 488.300781 200.65625 C 486.804688 200.65625 485.585938 199.4375 485.585938 197.941406 L 485.585938 189.941406 Z M 480.578125 189.878906 L 480.578125 197.9375 C 480.578125 202.195312 484.046875 205.660156 488.300781 205.660156 L 537.324219 205.660156 C 541.582031 205.660156 545.046875 202.195312 545.046875 197.9375 L 545.046875 189.878906 L 577.136719 189.878906 L 577.136719 221.914062 L 569.992188 221.914062 C 570.371094 218.878906 568.417969 215.949219 565.191406 215.957031 C 565.191406 215.957031 547.625 215.957031 547.625 215.957031 C 544.40625 215.949219 542.445312 218.878906 542.828125 221.914062 L 526.394531 221.914062 C 526.773438 218.875 524.820312 215.949219 521.597656 215.957031 C 521.597656 215.957031 504.027344 215.957031 504.027344 215.957031 C 500.8125 215.949219 498.847656 218.875 499.230469 221.914062 L 482.796875 221.914062 C 483.175781 218.875 481.222656 215.949219 478 215.957031 C 478 215.957031 460.429688 215.957031 460.429688 215.957031 C 457.21875 215.949219 455.253906 218.875 455.636719 221.90625 L 448.492188 221.90625 L 448.492188 189.878906 Z M 540.042969 385.984375 L 485.585938 385.984375 L 485.585938 378.050781 C 485.585938 376.550781 486.804688 375.332031 488.300781 375.332031 L 537.324219 375.332031 C 538.824219 375.332031 540.042969 376.550781 540.042969 378.050781 Z M 545.046875 385.984375 L 545.046875 378.050781 C 545.046875 373.792969 541.582031 370.328125 537.324219 370.328125 L 488.300781 370.328125 C 484.046875 370.328125 480.578125 373.792969 480.578125 378.050781 L 480.578125 385.984375 L 448.492188 385.984375 L 448.492188 353.949219 L 455.636719 353.949219 C 455.257812 356.984375 457.210938 359.910156 460.429688 359.90625 C 460.429688 359.90625 478 359.90625 478 359.90625 C 481.210938 359.914062 483.179688 356.988281 482.796875 353.957031 L 499.230469 353.957031 C 498.851562 356.992188 500.8125 359.914062 504.027344 359.90625 C 504.027344 359.90625 521.597656 359.90625 521.597656 359.90625 C 524.808594 359.914062 526.773438 356.988281 526.394531 353.957031 L 542.828125 353.957031 C 542.449219 356.992188 544.40625 359.914062 547.625 359.90625 C 547.625 359.90625 565.191406 359.90625 565.191406 359.90625 C 568.398438 359.914062 570.371094 356.996094 569.992188 353.964844 L 577.136719 353.964844 L 577.136719 385.984375 Z M 545.046875 385.984375 " fill-opacity="1" fill-rule="nonzero"/><g clip-path="url(#a5493c8a74)"><path fill="#ffc107" d="M 603.234375 234.90625 L 612.433594 234.90625 C 615.402344 234.90625 617.8125 232.492188 617.8125 229.527344 L 617.8125 219.308594 C 617.8125 216.339844 615.398438 213.929688 612.433594 213.929688 L 603.234375 213.929688 C 601.851562 213.929688 600.730469 215.050781 600.730469 216.429688 L 600.730469 221.914062 L 594.21875 221.914062 L 594.21875 183.933594 C 594.21875 177.828125 589.25 172.855469 583.136719 172.855469 L 442.488281 172.855469 C 436.378906 172.855469 431.40625 177.828125 431.40625 183.933594 L 431.40625 250.453125 L 423.011719 250.453125 L 423.011719 244.960938 C 423.011719 243.578125 421.890625 242.457031 420.507812 242.457031 L 411.308594 242.457031 C 408.339844 242.457031 405.929688 244.871094 405.929688 247.835938 L 405.929688 258.058594 C 405.929688 261.023438 408.34375 263.4375 411.308594 263.4375 L 420.507812 263.4375 C 421.890625 263.4375 423.011719 262.3125 423.011719 260.933594 L 423.011719 255.457031 L 431.40625 255.457031 L 431.40625 348.945312 L 423.011719 348.945312 L 423.011719 343.460938 C 423.011719 342.082031 421.890625 340.960938 420.507812 340.960938 L 411.308594 340.960938 C 408.339844 340.960938 405.929688 343.371094 405.929688 346.339844 L 405.929688 356.558594 C 405.929688 359.523438 408.34375 361.9375 411.308594 361.9375 L 420.507812 361.9375 C 421.890625 361.9375 423.011719 360.816406 423.011719 359.433594 L 423.011719 353.949219 L 431.40625 353.949219 L 431.40625 392.050781 C 431.40625 398.160156 436.375 403.128906 442.488281 403.128906 L 583.136719 403.128906 C 589.246094 403.128906 594.21875 398.160156 594.21875 392.050781 L 594.21875 327.015625 L 600.730469 327.015625 L 600.730469 332.496094 C 600.730469 333.878906 601.851562 335 603.234375 335 L 612.433594 335 C 615.402344 335 617.8125 332.585938 617.8125 329.621094 L 617.8125 319.402344 C 617.8125 316.433594 615.398438 314.023438 612.433594 314.023438 L 603.234375 314.023438 C 601.851562 314.023438 600.730469 315.144531 600.730469 316.523438 L 600.730469 322.007812 L 594.21875 322.007812 L 594.21875 285.910156 C 594.164062 282.625 589.265625 282.617188 589.210938 285.910156 C 589.210938 285.910156 589.210938 324.488281 589.210938 324.488281 C 589.207031 324.503906 589.207031 324.519531 589.210938 324.535156 L 589.210938 392.046875 C 589.210938 395.398438 586.484375 398.121094 583.136719 398.121094 L 442.488281 398.121094 C 439.136719 398.121094 436.414062 395.398438 436.414062 392.046875 L 436.414062 351.46875 C 436.417969 351.453125 436.417969 351.4375 436.414062 351.421875 L 436.414062 252.976562 C 436.417969 252.960938 436.417969 252.945312 436.414062 252.929688 L 436.414062 183.933594 C 436.414062 180.585938 439.136719 177.863281 442.488281 177.863281 L 583.136719 177.863281 C 586.484375 177.863281 589.210938 180.585938 589.210938 183.933594 L 589.210938 224.390625 C 589.207031 224.410156 589.207031 224.421875 589.210938 224.4375 L 589.210938 271.128906 C 589.265625 274.414062 594.164062 274.425781 594.21875 271.128906 C 594.21875 271.128906 594.21875 226.917969 594.21875 226.917969 L 600.730469 226.917969 L 600.730469 232.398438 C 600.730469 233.78125 601.851562 234.902344 603.234375 234.902344 Z M 418.003906 258.433594 L 411.308594 258.433594 C 411.105469 258.433594 410.9375 258.265625 410.9375 258.058594 L 410.9375 247.839844 C 410.9375 247.632812 411.105469 247.464844 411.308594 247.464844 L 418.003906 247.464844 Z M 418.003906 356.933594 L 411.308594 356.933594 C 411.105469 356.933594 410.9375 356.765625 410.9375 356.5625 L 410.9375 346.339844 C 410.9375 346.132812 411.105469 345.96875 411.308594 345.96875 L 418.003906 345.96875 Z M 612.433594 319.03125 C 612.636719 319.03125 612.804688 319.199219 612.804688 319.40625 L 612.804688 329.625 C 612.804688 329.832031 612.636719 330 612.433594 330 L 605.738281 330 C 605.738281 327.242188 605.738281 321.785156 605.738281 319.03125 Z M 612.433594 218.933594 C 612.636719 218.933594 612.804688 219.101562 612.804688 219.308594 L 612.804688 229.527344 C 612.804688 229.734375 612.636719 229.898438 612.433594 229.898438 L 605.738281 229.898438 C 605.738281 227.144531 605.738281 221.6875 605.738281 218.933594 Z M 612.433594 218.933594 " fill-opacity="1" fill-rule="nonzero"/></g><path fill="#ffc107" d="M 592.667969 276.207031 C 592.515625 276.15625 592.367188 276.105469 592.191406 276.054688 C 591.390625 275.90625 590.542969 276.179688 589.941406 276.757812 C 588.207031 278.378906 589.859375 281.535156 592.191406 280.988281 C 592.367188 280.9375 592.519531 280.886719 592.667969 280.835938 C 592.820312 280.761719 592.964844 280.6875 593.09375 280.613281 C 594.574219 279.710938 594.566406 277.324219 593.09375 276.429688 C 592.964844 276.355469 592.820312 276.28125 592.667969 276.207031 Z M 592.667969 276.207031 " fill-opacity="1" fill-rule="nonzero"/></svg>