<svg xmlns="http://www.w3.org/2000/svg" xmlns:xlink="http://www.w3.org/1999/xlink" width="1366" zoomAndPan="magnify" viewBox="0 0 1024.5 576" height="768" preserveAspectRatio="xMidYMid meet" version="1.0"><defs><clipPath id="8952569eba"><path d="M 396.226562 173 L 627 173 L 627 402.992188 L 396.226562 402.992188 Z M 396.226562 173 " clip-rule="nonzero"/></clipPath></defs><g clip-path="url(#8952569eba)"><path fill="#ffc107" d="M 396.460938 287.714844 C 396.628906 224.585938 448.796875 172.875 512.035156 173.140625 C 575.316406 173.410156 627.472656 225.585938 626.472656 289.4375 C 625.484375 352.648438 575.878906 402.929688 511.75 403.054688 C 446.207031 403.183594 396.847656 350.953125 396.460938 287.714844 Z M 563.941406 325.867188 C 563.542969 310.828125 557.671875 296.632812 549.757812 283.113281 C 548.738281 281.375 547.300781 280.421875 545.257812 280.085938 C 531.484375 277.828125 517.707031 275.566406 503.964844 273.117188 C 500.609375 272.519531 498.21875 273.488281 495.855469 275.773438 C 485.925781 285.351562 476.320312 295.203125 467.699219 306.011719 C 465.285156 309.035156 464.835938 311.75 466.210938 315.347656 C 470.472656 326.445312 474.527344 337.625 478.511719 348.828125 C 479.464844 351.507812 480.898438 353.316406 483.546875 354.480469 C 497.554688 360.644531 512.40625 363.09375 527.472656 364.625 C 529.417969 364.824219 531.210938 364.472656 532.707031 363.042969 C 542.8125 353.398438 552.9375 343.773438 561.878906 332.996094 C 563.386719 331.179688 564.308594 329.1875 563.941406 325.867188 Z M 456.488281 216.652344 C 450.417969 215.648438 444.179688 219.460938 438.832031 225.359375 C 431.714844 233.207031 425.472656 241.742188 419.222656 250.273438 C 418.191406 251.683594 417.332031 253.144531 417.480469 254.933594 C 418.609375 268.457031 418.988281 282.09375 423.550781 295.097656 C 424.398438 297.507812 425.515625 299.410156 428.355469 300.089844 C 438.449219 302.507812 448.5 305.101562 458.558594 307.65625 C 461.179688 308.324219 463.285156 307.894531 465.078125 305.632812 C 474.128906 294.230469 483.738281 283.335938 494.773438 273.78125 C 497.042969 271.820312 497.695312 269.601562 496.90625 266.71875 C 493.652344 254.828125 492.273438 242.640625 491.558594 230.378906 C 491.304688 226.039062 489.398438 223.5 485.316406 222.03125 C 476.71875 218.941406 467.921875 217.109375 456.488281 216.652344 Z M 580.617188 240.738281 C 574.375 240.261719 570.519531 243.527344 567.671875 250.585938 C 564.078125 259.503906 559.140625 267.851562 553.40625 275.617188 C 551.3125 278.453125 551.128906 280.738281 552.882812 283.808594 C 560.054688 296.386719 565.378906 309.640625 566.355469 324.277344 C 566.625 328.328125 568.542969 329.6875 572.460938 329.863281 C 580.175781 330.207031 587.878906 330.910156 595.570312 331.65625 C 598.527344 331.941406 600.617188 330.917969 602.507812 328.777344 C 611.578125 318.503906 617.308594 306.542969 620.472656 293.292969 C 620.816406 291.855469 620.902344 290.253906 620.671875 288.800781 C 619.027344 278.53125 616.515625 268.53125 612.484375 258.867188 C 607.554688 247.050781 598.363281 241.367188 586.28125 240.738281 C 584.941406 240.667969 583.398438 240.738281 580.617188 240.738281 Z M 512.277344 175.804688 C 492.175781 175.917969 474.804688 180.242188 458.511719 188.867188 C 457.027344 189.652344 454.382812 190.695312 454.417969 191.53125 C 454.703125 198.386719 450.382812 204.199219 450.378906 210.957031 C 450.378906 214.015625 451.460938 214.886719 454.398438 214.699219 C 465.871094 213.972656 476.902344 216.042969 487.488281 220.441406 C 490.039062 221.5 492.289062 222.136719 494.90625 220.371094 C 503.265625 214.734375 512.667969 211.367188 522.128906 208.109375 C 537.214844 202.917969 537.191406 202.859375 535.804688 186.925781 C 535.785156 186.738281 535.777344 186.550781 535.769531 186.359375 C 535.625 182.773438 533.820312 180.453125 530.527344 179.039062 C 524.140625 176.296875 517.4375 175.707031 512.277344 175.804688 Z M 508.589844 400.929688 C 520.25 399.261719 532.03125 396.925781 542.964844 391.429688 C 545.597656 390.101562 546.238281 388.589844 543.933594 386.273438 C 539.652344 381.964844 536.457031 376.820312 533.277344 371.699219 C 531.554688 368.921875 529.414062 367.535156 526.0625 367.113281 C 510.902344 365.203125 495.859375 362.683594 481.773438 356.308594 C 479.90625 355.460938 478.175781 355.621094 476.476562 356.898438 C 469.835938 361.894531 462.878906 366.390625 455.320312 369.902344 C 453.214844 370.878906 452.324219 372.253906 453.925781 374.292969 C 460.597656 382.761719 467.488281 391.21875 477.757812 395.378906 C 487.4375 399.296875 497.949219 399.707031 508.589844 400.929688 Z M 606.945312 246.101562 C 607.746094 237.027344 606.792969 228.699219 602.34375 222.148438 C 591.90625 206.769531 577.734375 195.242188 560.933594 187.144531 C 555.128906 184.347656 549.070312 182.238281 542.476562 182.492188 C 540.664062 182.5625 538.3125 182.296875 538.40625 185.136719 C 538.601562 190.976562 538.839844 196.808594 538.269531 202.644531 C 538.144531 203.898438 539.226562 204.625 540.15625 205.277344 C 551.453125 213.175781 560.011719 223.695312 568.027344 234.679688 C 570.285156 237.765625 572.929688 238.886719 576.65625 238.820312 C 587.070312 238.644531 597.375 239.242188 606.945312 246.101562 Z M 399.132812 288.589844 C 399.03125 300.1875 400.898438 311.472656 404.382812 322.519531 C 405.335938 325.535156 406.976562 327.886719 409.664062 329.582031 C 414.144531 332.40625 415.390625 332.019531 416.410156 326.859375 C 417.984375 318.90625 419.414062 310.929688 422.238281 303.296875 C 422.945312 301.390625 422.660156 299.683594 421.988281 297.832031 C 419.015625 289.640625 417.253906 281.191406 416.574219 272.492188 C 416.148438 267.050781 415.429688 261.636719 414.804688 256.214844 C 414.304688 251.898438 410.550781 250.894531 407.46875 250.277344 C 404.484375 249.683594 404.542969 253.203125 403.945312 255.15625 C 400.601562 266.035156 399.085938 277.207031 399.132812 288.589844 Z M 464.0625 389.925781 C 453.414062 377.609375 443.292969 364.828125 431.222656 353.796875 C 426.199219 349.210938 421.875 343.925781 418.089844 338.277344 C 415.90625 335.019531 412.972656 333.621094 408.261719 332.839844 C 420.15625 359.308594 438.6875 377.933594 464.0625 389.925781 Z M 592.632812 365.292969 C 611.386719 346.542969 625.328125 313.894531 622.851562 294.769531 C 618.714844 308.847656 612.761719 321.539062 602.773438 332.019531 C 601.839844 333 601.179688 334.109375 601.085938 335.5 C 600.371094 346.007812 596.867188 355.707031 592.632812 365.292969 Z M 581.9375 375.199219 C 567.785156 383.882812 551.421875 388.265625 537.378906 397.300781 C 554.003906 393.605469 568.925781 386.421875 581.9375 375.199219 Z M 581.9375 375.199219 " fill-opacity="1" fill-rule="evenodd"/></g></svg>